<?xml version="1.0" encoding="UTF-8" standalone="no"?>
<!DOCTYPE svg PUBLIC "-//W3C//DTD SVG 1.1//EN" "http://www.w3.org/Graphics/SVG/1.1/DTD/svg11.dtd">
<svg width="100%" height="100%" viewBox="0 0 861 246" version="1.1" xmlns="http://www.w3.org/2000/svg" xmlns:xlink="http://www.w3.org/1999/xlink" xml:space="preserve" xmlns:serif="http://www.serif.com/" style="fill-rule:evenodd;clip-rule:evenodd;stroke-linejoin:round;stroke-miterlimit:2;">
    <g transform="matrix(2.66667,0,0,2.66667,-2984.47,-1299.1)">
        <g transform="matrix(32,0,0,32,1117,530)">
            <path d="M0.079,-0.708L0.205,-0.708L0.205,-0.114L0.506,-0.114L0.506,0L0.079,0L0.079,-0.708Z" style="fill:white;fill-rule:nonzero;"/>
        </g>
        <g transform="matrix(32,0,0,32,1133.61,530)">
            <path d="M0.164,-0.198C0.168,-0.162 0.182,-0.134 0.206,-0.114C0.23,-0.094 0.259,-0.084 0.293,-0.084C0.323,-0.084 0.348,-0.09 0.369,-0.103C0.389,-0.115 0.407,-0.13 0.422,-0.149L0.508,-0.084C0.48,-0.049 0.449,-0.025 0.414,-0.01C0.379,0.005 0.343,0.012 0.305,0.012C0.269,0.012 0.235,0.006 0.203,-0.006C0.171,-0.018 0.143,-0.035 0.12,-0.057C0.097,-0.079 0.078,-0.106 0.065,-0.137C0.051,-0.167 0.044,-0.202 0.044,-0.24C0.044,-0.278 0.051,-0.313 0.065,-0.344C0.078,-0.375 0.097,-0.401 0.12,-0.423C0.143,-0.445 0.171,-0.462 0.203,-0.474C0.235,-0.486 0.269,-0.492 0.305,-0.492C0.338,-0.492 0.369,-0.486 0.397,-0.475C0.424,-0.463 0.448,-0.446 0.468,-0.424C0.487,-0.402 0.502,-0.375 0.514,-0.343C0.525,-0.31 0.53,-0.273 0.53,-0.231L0.53,-0.198L0.164,-0.198ZM0.41,-0.288C0.409,-0.323 0.398,-0.351 0.377,-0.372C0.356,-0.392 0.326,-0.402 0.288,-0.402C0.252,-0.402 0.224,-0.392 0.203,-0.371C0.182,-0.35 0.169,-0.323 0.164,-0.288L0.41,-0.288Z" style="fill:white;fill-rule:nonzero;"/>
        </g>
        <g transform="matrix(59,0,0,59,1161.45,530)">
            <path d="M0.079,-0.708L0.317,-0.708C0.351,-0.708 0.384,-0.705 0.416,-0.698C0.447,-0.691 0.475,-0.68 0.499,-0.665C0.523,-0.649 0.542,-0.628 0.557,-0.602C0.571,-0.575 0.578,-0.542 0.578,-0.503C0.578,-0.458 0.57,-0.422 0.555,-0.395C0.54,-0.368 0.519,-0.346 0.493,-0.332C0.467,-0.317 0.437,-0.306 0.403,-0.301C0.368,-0.296 0.332,-0.293 0.295,-0.293L0.205,-0.293L0.205,0L0.079,0L0.079,-0.708ZM0.281,-0.401C0.299,-0.401 0.318,-0.402 0.337,-0.403C0.356,-0.404 0.374,-0.408 0.391,-0.415C0.407,-0.422 0.42,-0.432 0.431,-0.445C0.441,-0.458 0.446,-0.477 0.446,-0.501C0.446,-0.523 0.441,-0.541 0.432,-0.554C0.423,-0.567 0.411,-0.577 0.396,-0.584C0.381,-0.591 0.365,-0.595 0.347,-0.597C0.329,-0.599 0.312,-0.6 0.295,-0.6L0.205,-0.6L0.205,-0.401L0.281,-0.401Z" style="fill:white;fill-rule:nonzero;"/>
        </g>
        <g transform="matrix(59,0,0,59,1197.5,530)">
            <path d="M0.041,-0.351C0.041,-0.408 0.05,-0.459 0.069,-0.506C0.088,-0.552 0.114,-0.591 0.147,-0.624C0.18,-0.657 0.219,-0.682 0.265,-0.7C0.31,-0.717 0.36,-0.726 0.415,-0.726C0.47,-0.727 0.521,-0.719 0.567,-0.702C0.613,-0.685 0.653,-0.66 0.686,-0.627C0.719,-0.594 0.745,-0.555 0.764,-0.509C0.783,-0.463 0.792,-0.412 0.792,-0.355C0.792,-0.3 0.783,-0.249 0.764,-0.204C0.745,-0.159 0.719,-0.12 0.686,-0.087C0.653,-0.054 0.613,-0.029 0.567,-0.011C0.521,0.008 0.47,0.017 0.415,0.018C0.36,0.018 0.31,0.009 0.265,-0.009C0.219,-0.026 0.18,-0.051 0.147,-0.084C0.114,-0.116 0.088,-0.155 0.069,-0.2C0.05,-0.245 0.041,-0.296 0.041,-0.351ZM0.173,-0.359C0.173,-0.321 0.179,-0.286 0.191,-0.254C0.202,-0.222 0.219,-0.194 0.24,-0.171C0.261,-0.148 0.287,-0.129 0.317,-0.116C0.346,-0.103 0.379,-0.096 0.416,-0.096C0.453,-0.096 0.486,-0.103 0.516,-0.116C0.546,-0.129 0.572,-0.148 0.593,-0.171C0.614,-0.194 0.631,-0.222 0.643,-0.254C0.654,-0.286 0.66,-0.321 0.66,-0.359C0.66,-0.394 0.654,-0.427 0.643,-0.458C0.631,-0.489 0.614,-0.516 0.593,-0.539C0.572,-0.562 0.546,-0.58 0.516,-0.593C0.486,-0.606 0.453,-0.612 0.416,-0.612C0.379,-0.612 0.346,-0.606 0.317,-0.593C0.287,-0.58 0.261,-0.562 0.24,-0.539C0.219,-0.516 0.202,-0.489 0.191,-0.458C0.179,-0.427 0.173,-0.394 0.173,-0.359Z" style="fill:white;fill-rule:nonzero;"/>
        </g>
        <g transform="matrix(59,0,0,59,1246.64,530)">
            <path d="M0.079,-0.708L0.358,-0.708C0.405,-0.708 0.45,-0.701 0.493,-0.687C0.536,-0.672 0.575,-0.65 0.608,-0.621C0.641,-0.592 0.668,-0.555 0.688,-0.511C0.708,-0.466 0.718,-0.414 0.718,-0.354C0.718,-0.293 0.707,-0.241 0.684,-0.197C0.661,-0.152 0.631,-0.116 0.595,-0.087C0.558,-0.058 0.518,-0.036 0.474,-0.022C0.429,-0.007 0.386,0 0.343,0L0.079,0L0.079,-0.708ZM0.299,-0.114C0.338,-0.114 0.376,-0.119 0.411,-0.128C0.446,-0.137 0.476,-0.151 0.502,-0.17C0.528,-0.189 0.549,-0.213 0.564,-0.244C0.579,-0.274 0.586,-0.311 0.586,-0.354C0.586,-0.397 0.579,-0.433 0.566,-0.464C0.553,-0.495 0.534,-0.52 0.511,-0.539C0.487,-0.558 0.459,-0.572 0.427,-0.581C0.394,-0.59 0.359,-0.594 0.32,-0.594L0.205,-0.594L0.205,-0.114L0.299,-0.114Z" style="fill:white;fill-rule:nonzero;"/>
        </g>
        <g transform="matrix(59,0,0,59,1291.42,530)">
            <path d="M0.565,-0.542C0.539,-0.57 0.514,-0.589 0.49,-0.598C0.465,-0.607 0.441,-0.612 0.416,-0.612C0.379,-0.612 0.346,-0.606 0.317,-0.593C0.287,-0.58 0.261,-0.562 0.24,-0.539C0.219,-0.516 0.202,-0.489 0.191,-0.458C0.179,-0.427 0.173,-0.394 0.173,-0.359C0.173,-0.321 0.179,-0.286 0.191,-0.254C0.202,-0.222 0.219,-0.194 0.24,-0.171C0.261,-0.148 0.287,-0.129 0.317,-0.116C0.346,-0.103 0.379,-0.096 0.416,-0.096C0.445,-0.096 0.472,-0.103 0.5,-0.117C0.527,-0.13 0.552,-0.152 0.575,-0.182L0.679,-0.108C0.647,-0.064 0.608,-0.032 0.562,-0.012C0.516,0.008 0.467,0.018 0.415,0.018C0.36,0.018 0.31,0.009 0.265,-0.009C0.219,-0.026 0.18,-0.051 0.147,-0.084C0.114,-0.116 0.088,-0.155 0.069,-0.2C0.05,-0.245 0.041,-0.296 0.041,-0.351C0.041,-0.408 0.05,-0.459 0.069,-0.506C0.088,-0.552 0.114,-0.591 0.147,-0.624C0.18,-0.657 0.219,-0.682 0.265,-0.7C0.31,-0.717 0.36,-0.726 0.415,-0.726C0.463,-0.726 0.507,-0.717 0.549,-0.701C0.59,-0.684 0.628,-0.655 0.663,-0.614L0.565,-0.542Z" style="fill:white;fill-rule:nonzero;"/>
        </g>
        <g transform="matrix(59,0,0,59,1331.84,530)">
            <path d="M0.308,-0.708L0.417,-0.708L0.722,0L0.578,0L0.512,-0.162L0.205,-0.162L0.141,0L0,0L0.308,-0.708ZM0.468,-0.27L0.359,-0.558L0.248,-0.27L0.468,-0.27Z" style="fill:white;fill-rule:nonzero;"/>
        </g>
        <g transform="matrix(59,0,0,59,1374.44,530)">
            <path d="M0.426,-0.556C0.413,-0.575 0.395,-0.59 0.373,-0.599C0.35,-0.608 0.327,-0.612 0.302,-0.612C0.287,-0.612 0.273,-0.61 0.26,-0.607C0.246,-0.604 0.234,-0.598 0.223,-0.591C0.212,-0.584 0.203,-0.574 0.196,-0.563C0.189,-0.551 0.186,-0.537 0.186,-0.521C0.186,-0.497 0.194,-0.479 0.211,-0.466C0.228,-0.453 0.248,-0.442 0.273,-0.433C0.298,-0.424 0.325,-0.415 0.354,-0.406C0.383,-0.397 0.41,-0.385 0.435,-0.37C0.46,-0.355 0.48,-0.334 0.497,-0.309C0.514,-0.284 0.522,-0.25 0.522,-0.208C0.522,-0.17 0.515,-0.137 0.501,-0.109C0.487,-0.08 0.468,-0.057 0.445,-0.038C0.421,-0.019 0.393,-0.005 0.362,0.004C0.331,0.013 0.298,0.018 0.263,0.018C0.219,0.018 0.177,0.011 0.136,-0.004C0.095,-0.019 0.06,-0.043 0.031,-0.078L0.126,-0.17C0.141,-0.147 0.162,-0.129 0.187,-0.116C0.212,-0.102 0.238,-0.096 0.266,-0.096C0.281,-0.096 0.295,-0.098 0.31,-0.102C0.325,-0.106 0.338,-0.112 0.35,-0.12C0.362,-0.128 0.372,-0.138 0.379,-0.151C0.386,-0.163 0.39,-0.177 0.39,-0.193C0.39,-0.219 0.382,-0.239 0.365,-0.253C0.348,-0.267 0.328,-0.279 0.303,-0.289C0.278,-0.298 0.251,-0.307 0.222,-0.316C0.193,-0.325 0.166,-0.337 0.141,-0.352C0.116,-0.367 0.096,-0.387 0.079,-0.412C0.062,-0.437 0.054,-0.47 0.054,-0.512C0.054,-0.549 0.062,-0.58 0.077,-0.607C0.092,-0.634 0.111,-0.656 0.136,-0.674C0.16,-0.691 0.188,-0.704 0.219,-0.713C0.25,-0.722 0.282,-0.726 0.315,-0.726C0.352,-0.726 0.389,-0.72 0.424,-0.709C0.459,-0.698 0.49,-0.679 0.518,-0.653L0.426,-0.556Z" style="fill:white;fill-rule:nonzero;"/>
        </g>
        <g transform="matrix(59,0,0,59,1408.3,530)">
            <path d="M0.224,-0.594L0.007,-0.594L0.007,-0.708L0.567,-0.708L0.567,-0.594L0.35,-0.594L0.35,0L0.224,0L0.224,-0.594Z" style="fill:white;fill-rule:nonzero;"/>
        </g>
        <g transform="matrix(32,0,0,32,1117,572)">
            <path d="M0.068,-0.48L0.182,-0.48L0.182,-0.408L0.184,-0.408C0.201,-0.437 0.225,-0.459 0.254,-0.472C0.283,-0.485 0.315,-0.492 0.349,-0.492C0.386,-0.492 0.419,-0.486 0.448,-0.473C0.477,-0.46 0.502,-0.442 0.523,-0.419C0.544,-0.396 0.559,-0.37 0.57,-0.339C0.581,-0.308 0.586,-0.275 0.586,-0.24C0.586,-0.205 0.58,-0.172 0.569,-0.141C0.558,-0.11 0.542,-0.084 0.522,-0.061C0.501,-0.038 0.477,-0.021 0.448,-0.008C0.419,0.006 0.388,0.012 0.354,0.012C0.331,0.012 0.311,0.01 0.294,0.005C0.277,0 0.261,-0.006 0.248,-0.013C0.235,-0.02 0.223,-0.028 0.214,-0.037C0.205,-0.045 0.197,-0.053 0.191,-0.061L0.188,-0.061L0.188,0.228L0.068,0.228L0.068,-0.48ZM0.466,-0.24C0.466,-0.259 0.463,-0.277 0.457,-0.294C0.45,-0.311 0.441,-0.327 0.429,-0.34C0.416,-0.353 0.401,-0.364 0.384,-0.372C0.367,-0.38 0.347,-0.384 0.325,-0.384C0.303,-0.384 0.283,-0.38 0.266,-0.372C0.249,-0.364 0.234,-0.353 0.222,-0.34C0.209,-0.327 0.2,-0.311 0.194,-0.294C0.187,-0.277 0.184,-0.259 0.184,-0.24C0.184,-0.221 0.187,-0.203 0.194,-0.186C0.2,-0.169 0.209,-0.153 0.222,-0.14C0.234,-0.127 0.249,-0.116 0.266,-0.108C0.283,-0.1 0.303,-0.096 0.325,-0.096C0.347,-0.096 0.367,-0.1 0.384,-0.108C0.401,-0.116 0.416,-0.127 0.429,-0.14C0.441,-0.153 0.45,-0.169 0.457,-0.186C0.463,-0.203 0.466,-0.221 0.466,-0.24Z" style="fill:white;fill-rule:nonzero;"/>
        </g>
        <g transform="matrix(32,0,0,32,1137.16,572)">
            <path d="M0.044,-0.24C0.044,-0.278 0.051,-0.313 0.065,-0.344C0.078,-0.375 0.097,-0.401 0.12,-0.423C0.143,-0.445 0.171,-0.462 0.203,-0.474C0.235,-0.486 0.269,-0.492 0.305,-0.492C0.341,-0.492 0.375,-0.486 0.407,-0.474C0.439,-0.462 0.467,-0.445 0.49,-0.423C0.513,-0.401 0.532,-0.375 0.546,-0.344C0.559,-0.313 0.566,-0.278 0.566,-0.24C0.566,-0.202 0.559,-0.167 0.546,-0.137C0.532,-0.106 0.513,-0.079 0.49,-0.057C0.467,-0.035 0.439,-0.018 0.407,-0.006C0.375,0.006 0.341,0.012 0.305,0.012C0.269,0.012 0.235,0.006 0.203,-0.006C0.171,-0.018 0.143,-0.035 0.12,-0.057C0.097,-0.079 0.078,-0.106 0.065,-0.137C0.051,-0.167 0.044,-0.202 0.044,-0.24ZM0.164,-0.24C0.164,-0.221 0.167,-0.203 0.174,-0.186C0.18,-0.169 0.189,-0.153 0.202,-0.14C0.214,-0.127 0.229,-0.116 0.246,-0.108C0.263,-0.1 0.283,-0.096 0.305,-0.096C0.327,-0.096 0.347,-0.1 0.364,-0.108C0.381,-0.116 0.396,-0.127 0.409,-0.14C0.421,-0.153 0.43,-0.169 0.437,-0.186C0.443,-0.203 0.446,-0.221 0.446,-0.24C0.446,-0.259 0.443,-0.277 0.437,-0.294C0.43,-0.311 0.421,-0.327 0.409,-0.34C0.396,-0.353 0.381,-0.364 0.364,-0.372C0.347,-0.38 0.327,-0.384 0.305,-0.384C0.283,-0.384 0.263,-0.38 0.246,-0.372C0.229,-0.364 0.214,-0.353 0.202,-0.34C0.189,-0.327 0.18,-0.311 0.174,-0.294C0.167,-0.277 0.164,-0.259 0.164,-0.24Z" style="fill:white;fill-rule:nonzero;"/>
        </g>
        <g transform="matrix(32,0,0,32,1156.68,572)">
            <path d="M0.506,0L0.392,0L0.392,-0.077L0.39,-0.077C0.379,-0.053 0.361,-0.032 0.338,-0.015C0.315,0.003 0.283,0.012 0.243,0.012C0.211,0.012 0.184,0.007 0.162,-0.004C0.139,-0.014 0.121,-0.028 0.107,-0.046C0.093,-0.063 0.083,-0.083 0.077,-0.106C0.071,-0.129 0.068,-0.152 0.068,-0.177L0.068,-0.48L0.188,-0.48L0.188,-0.237C0.188,-0.224 0.189,-0.209 0.19,-0.193C0.191,-0.176 0.195,-0.161 0.201,-0.147C0.206,-0.132 0.215,-0.12 0.227,-0.111C0.238,-0.101 0.255,-0.096 0.276,-0.096C0.296,-0.096 0.313,-0.099 0.327,-0.106C0.34,-0.113 0.352,-0.122 0.361,-0.133C0.37,-0.144 0.376,-0.157 0.38,-0.172C0.384,-0.187 0.386,-0.202 0.386,-0.218L0.386,-0.48L0.506,-0.48L0.506,0Z" style="fill:white;fill-rule:nonzero;"/>
        </g>
        <g transform="matrix(32,0,0,32,1175.05,572)">
            <path d="M0.068,-0.48L0.188,-0.48L0.188,-0.404L0.19,-0.404C0.203,-0.432 0.222,-0.454 0.247,-0.469C0.272,-0.484 0.3,-0.492 0.332,-0.492C0.339,-0.492 0.347,-0.491 0.354,-0.49C0.361,-0.489 0.368,-0.487 0.375,-0.485L0.375,-0.369C0.365,-0.372 0.355,-0.374 0.346,-0.376C0.336,-0.377 0.326,-0.378 0.317,-0.378C0.289,-0.378 0.267,-0.373 0.25,-0.363C0.233,-0.352 0.22,-0.34 0.211,-0.327C0.202,-0.314 0.196,-0.3 0.193,-0.287C0.19,-0.274 0.188,-0.264 0.188,-0.257L0.188,0L0.068,0L0.068,-0.48Z" style="fill:white;fill-rule:nonzero;"/>
        </g>
        <g transform="matrix(32,0,0,32,1196.97,572)">
            <path d="M0.068,-0.48L0.188,-0.48L0.188,-0.404L0.19,-0.404C0.203,-0.432 0.222,-0.454 0.247,-0.469C0.272,-0.484 0.3,-0.492 0.332,-0.492C0.339,-0.492 0.347,-0.491 0.354,-0.49C0.361,-0.489 0.368,-0.487 0.375,-0.485L0.375,-0.369C0.365,-0.372 0.355,-0.374 0.346,-0.376C0.336,-0.377 0.326,-0.378 0.317,-0.378C0.289,-0.378 0.267,-0.373 0.25,-0.363C0.233,-0.352 0.22,-0.34 0.211,-0.327C0.202,-0.314 0.196,-0.3 0.193,-0.287C0.19,-0.274 0.188,-0.264 0.188,-0.257L0.188,0L0.068,0L0.068,-0.48Z" style="fill:white;fill-rule:nonzero;"/>
        </g>
        <g transform="matrix(32,0,0,32,1208.84,572)">
            <path d="M0.164,-0.198C0.168,-0.162 0.182,-0.134 0.206,-0.114C0.23,-0.094 0.259,-0.084 0.293,-0.084C0.323,-0.084 0.348,-0.09 0.369,-0.103C0.389,-0.115 0.407,-0.13 0.422,-0.149L0.508,-0.084C0.48,-0.049 0.449,-0.025 0.414,-0.01C0.379,0.005 0.343,0.012 0.305,0.012C0.269,0.012 0.235,0.006 0.203,-0.006C0.171,-0.018 0.143,-0.035 0.12,-0.057C0.097,-0.079 0.078,-0.106 0.065,-0.137C0.051,-0.167 0.044,-0.202 0.044,-0.24C0.044,-0.278 0.051,-0.313 0.065,-0.344C0.078,-0.375 0.097,-0.401 0.12,-0.423C0.143,-0.445 0.171,-0.462 0.203,-0.474C0.235,-0.486 0.269,-0.492 0.305,-0.492C0.338,-0.492 0.369,-0.486 0.397,-0.475C0.424,-0.463 0.448,-0.446 0.468,-0.424C0.487,-0.402 0.502,-0.375 0.514,-0.343C0.525,-0.31 0.53,-0.273 0.53,-0.231L0.53,-0.198L0.164,-0.198ZM0.41,-0.288C0.409,-0.323 0.398,-0.351 0.377,-0.372C0.356,-0.392 0.326,-0.402 0.288,-0.402C0.252,-0.402 0.224,-0.392 0.203,-0.371C0.182,-0.35 0.169,-0.323 0.164,-0.288L0.41,-0.288Z" style="fill:white;fill-rule:nonzero;"/>
        </g>
        <g transform="matrix(32,0,0,32,1227.21,572)">
            <path d="M0.324,-0.347C0.301,-0.38 0.269,-0.396 0.23,-0.396C0.214,-0.396 0.198,-0.392 0.183,-0.384C0.168,-0.376 0.16,-0.363 0.16,-0.345C0.16,-0.33 0.166,-0.32 0.179,-0.313C0.192,-0.306 0.208,-0.301 0.227,-0.296C0.246,-0.291 0.267,-0.286 0.29,-0.282C0.312,-0.277 0.333,-0.269 0.352,-0.259C0.371,-0.248 0.387,-0.234 0.4,-0.216C0.413,-0.198 0.419,-0.173 0.419,-0.142C0.419,-0.113 0.413,-0.089 0.401,-0.07C0.388,-0.05 0.372,-0.034 0.353,-0.022C0.333,-0.01 0.311,-0.001 0.286,0.004C0.261,0.009 0.237,0.012 0.212,0.012C0.175,0.012 0.14,0.007 0.109,-0.004C0.078,-0.015 0.05,-0.034 0.025,-0.062L0.105,-0.137C0.12,-0.12 0.137,-0.106 0.155,-0.095C0.172,-0.084 0.194,-0.078 0.219,-0.078C0.228,-0.078 0.237,-0.079 0.246,-0.081C0.255,-0.083 0.264,-0.086 0.272,-0.091C0.28,-0.096 0.287,-0.101 0.292,-0.109C0.297,-0.116 0.299,-0.124 0.299,-0.133C0.299,-0.15 0.293,-0.162 0.28,-0.17C0.267,-0.178 0.251,-0.185 0.232,-0.19C0.213,-0.195 0.192,-0.199 0.17,-0.204C0.147,-0.208 0.126,-0.215 0.107,-0.225C0.088,-0.234 0.072,-0.248 0.059,-0.265C0.046,-0.282 0.04,-0.306 0.04,-0.337C0.04,-0.364 0.046,-0.387 0.057,-0.407C0.067,-0.426 0.082,-0.442 0.1,-0.455C0.118,-0.468 0.139,-0.477 0.162,-0.483C0.185,-0.489 0.209,-0.492 0.233,-0.492C0.265,-0.492 0.297,-0.487 0.328,-0.476C0.359,-0.464 0.385,-0.446 0.404,-0.419L0.324,-0.347Z" style="fill:white;fill-rule:nonzero;"/>
        </g>
        <g transform="matrix(32,0,0,32,1241.42,572)">
            <path d="M0.012,-0.378L0.012,-0.48L0.111,-0.48L0.111,-0.619L0.231,-0.619L0.231,-0.48L0.363,-0.48L0.363,-0.378L0.231,-0.378L0.231,-0.168C0.231,-0.144 0.236,-0.125 0.245,-0.111C0.254,-0.097 0.271,-0.09 0.298,-0.09C0.309,-0.09 0.32,-0.091 0.333,-0.094C0.346,-0.096 0.356,-0.1 0.363,-0.105L0.363,-0.004C0.35,0.002 0.335,0.006 0.317,0.009C0.298,0.011 0.282,0.012 0.268,0.012C0.236,0.012 0.21,0.009 0.19,0.002C0.169,-0.006 0.153,-0.016 0.142,-0.031C0.13,-0.045 0.122,-0.063 0.118,-0.084C0.113,-0.105 0.111,-0.13 0.111,-0.158L0.111,-0.378L0.012,-0.378Z" style="fill:white;fill-rule:nonzero;"/>
        </g>
        <g transform="matrix(32,0,0,32,1253.86,572)">
            <path d="M0.164,-0.198C0.168,-0.162 0.182,-0.134 0.206,-0.114C0.23,-0.094 0.259,-0.084 0.293,-0.084C0.323,-0.084 0.348,-0.09 0.369,-0.103C0.389,-0.115 0.407,-0.13 0.422,-0.149L0.508,-0.084C0.48,-0.049 0.449,-0.025 0.414,-0.01C0.379,0.005 0.343,0.012 0.305,0.012C0.269,0.012 0.235,0.006 0.203,-0.006C0.171,-0.018 0.143,-0.035 0.12,-0.057C0.097,-0.079 0.078,-0.106 0.065,-0.137C0.051,-0.167 0.044,-0.202 0.044,-0.24C0.044,-0.278 0.051,-0.313 0.065,-0.344C0.078,-0.375 0.097,-0.401 0.12,-0.423C0.143,-0.445 0.171,-0.462 0.203,-0.474C0.235,-0.486 0.269,-0.492 0.305,-0.492C0.338,-0.492 0.369,-0.486 0.397,-0.475C0.424,-0.463 0.448,-0.446 0.468,-0.424C0.487,-0.402 0.502,-0.375 0.514,-0.343C0.525,-0.31 0.53,-0.273 0.53,-0.231L0.53,-0.198L0.164,-0.198ZM0.41,-0.288C0.409,-0.323 0.398,-0.351 0.377,-0.372C0.356,-0.392 0.326,-0.402 0.288,-0.402C0.252,-0.402 0.224,-0.392 0.203,-0.371C0.182,-0.35 0.169,-0.323 0.164,-0.288L0.41,-0.288Z" style="fill:white;fill-rule:nonzero;"/>
        </g>
        <g transform="matrix(32,0,0,32,1272.23,572)">
            <path d="M0.068,-0.48L0.188,-0.48L0.188,-0.404L0.19,-0.404C0.203,-0.432 0.222,-0.454 0.247,-0.469C0.272,-0.484 0.3,-0.492 0.332,-0.492C0.339,-0.492 0.347,-0.491 0.354,-0.49C0.361,-0.489 0.368,-0.487 0.375,-0.485L0.375,-0.369C0.365,-0.372 0.355,-0.374 0.346,-0.376C0.336,-0.377 0.326,-0.378 0.317,-0.378C0.289,-0.378 0.267,-0.373 0.25,-0.363C0.233,-0.352 0.22,-0.34 0.211,-0.327C0.202,-0.314 0.196,-0.3 0.193,-0.287C0.19,-0.274 0.188,-0.264 0.188,-0.257L0.188,0L0.068,0L0.068,-0.48Z" style="fill:white;fill-rule:nonzero;"/>
        </g>
        <g transform="matrix(32,0,0,32,1294.15,572)">
            <path d="M0.368,-0.066L0.365,-0.066C0.348,-0.039 0.326,-0.019 0.299,-0.007C0.272,0.006 0.243,0.012 0.211,0.012C0.189,0.012 0.167,0.009 0.147,0.003C0.126,-0.003 0.107,-0.012 0.091,-0.024C0.074,-0.036 0.061,-0.051 0.051,-0.069C0.041,-0.087 0.036,-0.108 0.036,-0.132C0.036,-0.158 0.041,-0.18 0.05,-0.199C0.059,-0.217 0.072,-0.232 0.088,-0.245C0.103,-0.257 0.121,-0.267 0.142,-0.274C0.163,-0.281 0.184,-0.287 0.207,-0.291C0.229,-0.294 0.251,-0.297 0.274,-0.298C0.297,-0.299 0.318,-0.299 0.338,-0.299L0.368,-0.299L0.368,-0.312C0.368,-0.342 0.358,-0.365 0.337,-0.38C0.316,-0.395 0.29,-0.402 0.258,-0.402C0.233,-0.402 0.209,-0.398 0.187,-0.389C0.165,-0.38 0.146,-0.367 0.13,-0.352L0.067,-0.415C0.094,-0.442 0.125,-0.462 0.161,-0.474C0.196,-0.486 0.233,-0.492 0.271,-0.492C0.305,-0.492 0.334,-0.488 0.357,-0.481C0.38,-0.473 0.4,-0.463 0.415,-0.451C0.43,-0.439 0.442,-0.425 0.451,-0.41C0.459,-0.394 0.465,-0.378 0.469,-0.362C0.472,-0.346 0.474,-0.331 0.475,-0.316C0.476,-0.301 0.476,-0.287 0.476,-0.276L0.476,0L0.368,0L0.368,-0.066ZM0.361,-0.215L0.336,-0.215C0.319,-0.215 0.301,-0.214 0.28,-0.213C0.259,-0.212 0.24,-0.209 0.222,-0.204C0.203,-0.199 0.188,-0.191 0.175,-0.182C0.162,-0.172 0.156,-0.158 0.156,-0.141C0.156,-0.13 0.159,-0.12 0.164,-0.113C0.169,-0.105 0.175,-0.098 0.183,-0.093C0.191,-0.088 0.2,-0.084 0.21,-0.082C0.22,-0.079 0.23,-0.078 0.24,-0.078C0.281,-0.078 0.312,-0.088 0.332,-0.108C0.351,-0.127 0.361,-0.154 0.361,-0.188L0.361,-0.215ZM0.316,-0.564L0.222,-0.564L0.081,-0.708L0.217,-0.708L0.316,-0.564Z" style="fill:white;fill-rule:nonzero;"/>
        </g>
        <g transform="matrix(32,0,0,32,1320.81,572)">
            <rect x="0.07" y="-0.756" width="0.12" height="0.756" style="fill:white;fill-rule:nonzero;"/>
        </g>
        <g transform="matrix(32,0,0,32,1329.16,572)">
            <path d="M0.122,-0.708L0.244,-0.708L0.159,-0.444L0.052,-0.444L0.122,-0.708Z" style="fill:white;fill-rule:nonzero;"/>
        </g>
        <g transform="matrix(32,0,0,32,1338.63,572)">
            <path d="M0.164,-0.198C0.168,-0.162 0.182,-0.134 0.206,-0.114C0.23,-0.094 0.259,-0.084 0.293,-0.084C0.323,-0.084 0.348,-0.09 0.369,-0.103C0.389,-0.115 0.407,-0.13 0.422,-0.149L0.508,-0.084C0.48,-0.049 0.449,-0.025 0.414,-0.01C0.379,0.005 0.343,0.012 0.305,0.012C0.269,0.012 0.235,0.006 0.203,-0.006C0.171,-0.018 0.143,-0.035 0.12,-0.057C0.097,-0.079 0.078,-0.106 0.065,-0.137C0.051,-0.167 0.044,-0.202 0.044,-0.24C0.044,-0.278 0.051,-0.313 0.065,-0.344C0.078,-0.375 0.097,-0.401 0.12,-0.423C0.143,-0.445 0.171,-0.462 0.203,-0.474C0.235,-0.486 0.269,-0.492 0.305,-0.492C0.338,-0.492 0.369,-0.486 0.397,-0.475C0.424,-0.463 0.448,-0.446 0.468,-0.424C0.487,-0.402 0.502,-0.375 0.514,-0.343C0.525,-0.31 0.53,-0.273 0.53,-0.231L0.53,-0.198L0.164,-0.198ZM0.41,-0.288C0.409,-0.323 0.398,-0.351 0.377,-0.372C0.356,-0.392 0.326,-0.402 0.288,-0.402C0.252,-0.402 0.224,-0.392 0.203,-0.371C0.182,-0.35 0.169,-0.323 0.164,-0.288L0.41,-0.288ZM0.339,-0.708L0.475,-0.708L0.334,-0.564L0.24,-0.564L0.339,-0.708Z" style="fill:white;fill-rule:nonzero;"/>
        </g>
        <g transform="matrix(32,0,0,32,1357,572)">
            <path d="M0.396,-0.336C0.382,-0.351 0.367,-0.362 0.352,-0.371C0.337,-0.38 0.321,-0.384 0.305,-0.384C0.283,-0.384 0.263,-0.38 0.246,-0.372C0.229,-0.364 0.214,-0.353 0.202,-0.34C0.189,-0.327 0.18,-0.311 0.174,-0.294C0.167,-0.277 0.164,-0.259 0.164,-0.24C0.164,-0.221 0.167,-0.203 0.174,-0.186C0.18,-0.169 0.189,-0.153 0.202,-0.14C0.214,-0.127 0.229,-0.116 0.246,-0.108C0.263,-0.1 0.283,-0.096 0.305,-0.096C0.324,-0.096 0.341,-0.1 0.357,-0.108C0.373,-0.115 0.387,-0.126 0.398,-0.141L0.478,-0.055C0.466,-0.043 0.452,-0.033 0.437,-0.024C0.421,-0.015 0.405,-0.008 0.389,-0.003C0.373,0.002 0.358,0.006 0.343,0.009C0.328,0.011 0.316,0.012 0.305,0.012C0.269,0.012 0.235,0.006 0.203,-0.006C0.171,-0.018 0.143,-0.035 0.12,-0.057C0.097,-0.079 0.078,-0.106 0.065,-0.137C0.051,-0.167 0.044,-0.202 0.044,-0.24C0.044,-0.278 0.051,-0.313 0.065,-0.344C0.078,-0.375 0.097,-0.401 0.12,-0.423C0.143,-0.445 0.171,-0.462 0.203,-0.474C0.235,-0.486 0.269,-0.492 0.305,-0.492C0.336,-0.492 0.367,-0.486 0.398,-0.475C0.429,-0.463 0.456,-0.444 0.479,-0.419L0.396,-0.336Z" style="fill:white;fill-rule:nonzero;"/>
        </g>
        <g transform="matrix(32,0,0,32,1372.42,572)">
            <path d="M0.044,-0.24C0.044,-0.278 0.051,-0.313 0.065,-0.344C0.078,-0.375 0.097,-0.401 0.12,-0.423C0.143,-0.445 0.171,-0.462 0.203,-0.474C0.235,-0.486 0.269,-0.492 0.305,-0.492C0.341,-0.492 0.375,-0.486 0.407,-0.474C0.439,-0.462 0.467,-0.445 0.49,-0.423C0.513,-0.401 0.532,-0.375 0.546,-0.344C0.559,-0.313 0.566,-0.278 0.566,-0.24C0.566,-0.202 0.559,-0.167 0.546,-0.137C0.532,-0.106 0.513,-0.079 0.49,-0.057C0.467,-0.035 0.439,-0.018 0.407,-0.006C0.375,0.006 0.341,0.012 0.305,0.012C0.269,0.012 0.235,0.006 0.203,-0.006C0.171,-0.018 0.143,-0.035 0.12,-0.057C0.097,-0.079 0.078,-0.106 0.065,-0.137C0.051,-0.167 0.044,-0.202 0.044,-0.24ZM0.164,-0.24C0.164,-0.221 0.167,-0.203 0.174,-0.186C0.18,-0.169 0.189,-0.153 0.202,-0.14C0.214,-0.127 0.229,-0.116 0.246,-0.108C0.263,-0.1 0.283,-0.096 0.305,-0.096C0.327,-0.096 0.347,-0.1 0.364,-0.108C0.381,-0.116 0.396,-0.127 0.409,-0.14C0.421,-0.153 0.43,-0.169 0.437,-0.186C0.443,-0.203 0.446,-0.221 0.446,-0.24C0.446,-0.259 0.443,-0.277 0.437,-0.294C0.43,-0.311 0.421,-0.327 0.409,-0.34C0.396,-0.353 0.381,-0.364 0.364,-0.372C0.347,-0.38 0.327,-0.384 0.305,-0.384C0.283,-0.384 0.263,-0.38 0.246,-0.372C0.229,-0.364 0.214,-0.353 0.202,-0.34C0.189,-0.327 0.18,-0.311 0.174,-0.294C0.167,-0.277 0.164,-0.259 0.164,-0.24Z" style="fill:white;fill-rule:nonzero;"/>
        </g>
        <g transform="matrix(32,0,0,32,1391.94,572)">
            <path d="M0.506,0L0.392,0L0.392,-0.077L0.39,-0.077C0.379,-0.053 0.361,-0.032 0.338,-0.015C0.315,0.003 0.283,0.012 0.243,0.012C0.211,0.012 0.184,0.007 0.162,-0.004C0.139,-0.014 0.121,-0.028 0.107,-0.046C0.093,-0.063 0.083,-0.083 0.077,-0.106C0.071,-0.129 0.068,-0.152 0.068,-0.177L0.068,-0.48L0.188,-0.48L0.188,-0.237C0.188,-0.224 0.189,-0.209 0.19,-0.193C0.191,-0.176 0.195,-0.161 0.201,-0.147C0.206,-0.132 0.215,-0.12 0.227,-0.111C0.238,-0.101 0.255,-0.096 0.276,-0.096C0.296,-0.096 0.313,-0.099 0.327,-0.106C0.34,-0.113 0.352,-0.122 0.361,-0.133C0.37,-0.144 0.376,-0.157 0.38,-0.172C0.384,-0.187 0.386,-0.202 0.386,-0.218L0.386,-0.48L0.506,-0.48L0.506,0Z" style="fill:white;fill-rule:nonzero;"/>
        </g>
        <g transform="matrix(32,0,0,32,1410.31,572)">
            <path d="M0.012,-0.378L0.012,-0.48L0.111,-0.48L0.111,-0.619L0.231,-0.619L0.231,-0.48L0.363,-0.48L0.363,-0.378L0.231,-0.378L0.231,-0.168C0.231,-0.144 0.236,-0.125 0.245,-0.111C0.254,-0.097 0.271,-0.09 0.298,-0.09C0.309,-0.09 0.32,-0.091 0.333,-0.094C0.346,-0.096 0.356,-0.1 0.363,-0.105L0.363,-0.004C0.35,0.002 0.335,0.006 0.317,0.009C0.298,0.011 0.282,0.012 0.268,0.012C0.236,0.012 0.21,0.009 0.19,0.002C0.169,-0.006 0.153,-0.016 0.142,-0.031C0.13,-0.045 0.122,-0.063 0.118,-0.084C0.113,-0.105 0.111,-0.13 0.111,-0.158L0.111,-0.378L0.012,-0.378Z" style="fill:white;fill-rule:nonzero;"/>
        </g>
        <g transform="matrix(32,0,0,32,1422.76,572)">
            <path d="M0.164,-0.198C0.168,-0.162 0.182,-0.134 0.206,-0.114C0.23,-0.094 0.259,-0.084 0.293,-0.084C0.323,-0.084 0.348,-0.09 0.369,-0.103C0.389,-0.115 0.407,-0.13 0.422,-0.149L0.508,-0.084C0.48,-0.049 0.449,-0.025 0.414,-0.01C0.379,0.005 0.343,0.012 0.305,0.012C0.269,0.012 0.235,0.006 0.203,-0.006C0.171,-0.018 0.143,-0.035 0.12,-0.057C0.097,-0.079 0.078,-0.106 0.065,-0.137C0.051,-0.167 0.044,-0.202 0.044,-0.24C0.044,-0.278 0.051,-0.313 0.065,-0.344C0.078,-0.375 0.097,-0.401 0.12,-0.423C0.143,-0.445 0.171,-0.462 0.203,-0.474C0.235,-0.486 0.269,-0.492 0.305,-0.492C0.338,-0.492 0.369,-0.486 0.397,-0.475C0.424,-0.463 0.448,-0.446 0.468,-0.424C0.487,-0.402 0.502,-0.375 0.514,-0.343C0.525,-0.31 0.53,-0.273 0.53,-0.231L0.53,-0.198L0.164,-0.198ZM0.41,-0.288C0.409,-0.323 0.398,-0.351 0.377,-0.372C0.356,-0.392 0.326,-0.402 0.288,-0.402C0.252,-0.402 0.224,-0.392 0.203,-0.371C0.182,-0.35 0.169,-0.323 0.164,-0.288L0.41,-0.288Z" style="fill:white;fill-rule:nonzero;"/>
        </g>
    </g>
</svg>
