<svg xmlns="http://www.w3.org/2000/svg" viewBox="0 0 512 512"><path d="M457.2,140.4L457.2,140.4C444.4,156.9,419.9,157.8,405.8,142.3C392.3,127.4,376.5,114.6,358.8,104.1C327,85.3,291.4,75.9,255.8,75.9C220.2,75.9,184.5,85.3,152.8,104.1C135,114.6,119.2,127.4,105.7,142.3C91.7,157.8,67.1,156.9,54.3,140.4L54.3,140.4C74,111.6,100.1,86.8,131.6,68.2C169.9,45.5,212.8,34.2,255.8,34.2C298.7,34.2,341.7,45.5,380,68.2C411.5,86.8,437.5,111.6,457.2,140.4Z" fill="#f3f2ff"/><path d="M50.8,467.5C46.7,467.5,42.8,464.7,41.7,460.5L10.8,343.9C9.8,340.3,9,336.7,8.2,333.3C4.2,315.3,2.2,296.8,2.2,278.4C2.2,227,17.5,177.5,46.6,135.1C67.6,104.3,94.6,79.1,126.8,60.1C165.8,37,210.4,24.8,255.8,24.8C301.1,24.8,345.8,37,384.8,60.1C417,79.1,443.9,104.3,465,135.1C504.5,192.8,518.5,265.1,503.3,333.3C502.6,336.7,501.7,340.2,500.7,343.9L469.8,460.5C468.5,465.6,463.3,468.5,458.3,467.2C453.3,465.9,450.3,460.7,451.6,455.7L482.5,339.1C483.5,335.6,484.2,332.4,484.9,329.3C499,266.1,486,199.2,449.4,145.7C430,117.2,405,93.9,375.2,76.3C339.1,54.9,297.8,43.6,255.8,43.6C213.8,43.6,172.5,54.9,136.4,76.3C106.6,93.9,81.6,117.2,62.1,145.7C35.2,185,21,230.9,21,278.4C21,295.4,22.9,312.5,26.6,329.2C27.3,332.4,28.1,335.7,29,339L59.9,455.7C61.3,460.7,58.3,465.9,53.2,467.2C52.4,467.4,51.6,467.5,50.8,467.5Z" fill="#dad7fd"/><path d="M511.6,348.8L480.4,465.4C478.8,471.3,473.2,475.3,467.1,474.8L411.6,470.7L454.6,309.8L504.8,334C510.3,336.6,513.2,342.8,511.6,348.8Z" fill="#f3f2ff"/><path d="M7.2,333.7L56.9,309.8L100,470.7L44.5,474.8C38.4,475.3,32.8,471.3,31.2,465.3L0.4,348.5C-1.1,342.6,1.7,336.4,7.2,333.7Z" fill="#f3f2ff"/><path d="M449.5,287.6C455.9,289.3,459.6,295.8,457.9,302.1L412.8,470.7L410.8,478.4C409.1,484.7,402.6,488.5,396.3,486.8L360.4,477.2C354.1,475.5,350.3,469,352,462.7L399.2,286.4C400.9,280.1,407.4,276.3,413.7,278L449.5,287.6Z" fill="#00e9ff"/><path d="M159.5,462.7C161.2,469,157.4,475.5,151.1,477.2L115.3,486.8C109,488.5,102.5,484.7,100.8,478.4L98.7,470.7L55.7,309.8L53.6,302.1C51.9,295.8,55.7,289.3,62,287.6L97.8,278C104.2,276.3,110.7,280.1,112.4,286.4L159.5,462.7Z" fill="#00e9ff"/><g transform="translate(184,241.5)"><path d="M122,35.5C122,30.9,118.2,27.1,113.5,27.1C108.8,27.1,105,30.9,105,35.5L105,194.6C105,199.2,108.8,203.1,113.5,203.1C118.2,203.1,122,199.2,122,194.6L122,35.5Z" fill="#382be4" clip-rule="evenodd" fill-rule="evenodd"/><path d="M52,69.6C52,64.9,48.2,61.1,43.5,61.1C38.8,61.1,35,64.9,35,69.6L35,160.5C35,165.2,38.8,169,43.5,169C48.2,169,52,165.2,52,160.5L52,69.6Z" fill="#382be4" clip-rule="evenodd" fill-rule="evenodd"/><path d="M17,108.1C17,103.4,13.2,99.6,8.5,99.6C3.8,99.6,0,103.4,0,108.1L0,122C0,126.7,3.8,130.5,8.5,130.5C13.2,130.5,17,126.7,17,122L17,108.1Z" fill="#382be4" clip-rule="evenodd" fill-rule="evenodd"/><path d="M87,8.5C87,3.8,83.2,0,78.5,0C73.8,0,70,3.8,70,8.5L70,221.6C70,226.3,73.8,230.1,78.5,230.1C83.2,230.1,87,226.3,87,221.6L87,8.5Z" fill="#382be4" clip-rule="evenodd" fill-rule="evenodd"/></g></svg>