<svg xmlns="http://www.w3.org/2000/svg" viewBox="0 0 511.6 511.6"><path d="M255.8,383.6C179.3,383.5,117.2,321.5,117.1,244.9L117.1,223.6C117.1,217.7,121.9,212.9,127.8,212.9L170.5,212.9C176.4,212.9,181.1,217.7,181.1,223.6C181.1,229.5,176.4,234.3,170.5,234.3L138.5,234.3L138.5,244.9C138.5,309.7,191,362.3,255.8,362.3C320.6,362.3,373.1,309.7,373.1,244.9L373.1,234.3L341.1,234.3C335.2,234.3,330.5,229.5,330.5,223.6C330.5,217.7,335.2,212.9,341.1,212.9L383.8,212.9C389.7,212.9,394.5,217.7,394.5,223.6L394.5,244.9C394.4,321.5,332.3,383.5,255.8,383.6Z" fill="#f3f2ff"/><path d="M351.8,95.6L351.8,244.9C351.8,298,308.8,340.9,255.8,340.9C202.8,340.9,159.8,298,159.8,244.9L159.8,95.6C159.8,92,160,88.5,160.4,84.9C166.6,32.3,214.2,-5.5,266.9,0.6C311.1,5.8,346,40.7,351.2,84.9C351.6,88.5,351.8,92,351.8,95.6Z" fill="#00e9ff"/><path d="M351.8,202.6L351.8,244.9C351.8,298,308.8,340.9,255.8,340.9C202.8,340.9,159.8,298,159.8,244.9L159.8,202.6C159.8,199,351.8,199,351.8,202.6Z" fill="#dad7fd"/><path d="M255.8,468.9C249.9,468.9,245.1,464.2,245.1,458.3L245.1,372.9C245.1,367.1,249.9,362.3,255.8,362.3C261.7,362.3,266.5,367.1,266.5,372.9L266.5,458.3C266.5,464.2,261.7,468.9,255.8,468.9Z" fill="#f3f2ff"/><rect x="159.8" y="190.3" width="192" height="21.3" fill="#dad7fd"/><path d="M298.5,447.6L213.1,447.6C183.7,447.6,159.8,471.5,159.8,500.9C159.8,506.8,164.6,511.6,170.5,511.6L341.1,511.6C347,511.6,351.8,506.8,351.8,500.9C351.8,471.5,327.9,447.6,298.5,447.6Z" fill="#dad7fd"/><g transform="translate(0,36.3)"><path d="M52,69.6C52,64.9,48.2,61.1,43.5,61.1C38.8,61.1,35,64.9,35,69.6L35,160.5C35,165.2,38.8,169,43.5,169C48.2,169,52,165.2,52,160.5L52,69.6Z" fill="#382be4" clip-rule="evenodd" fill-rule="evenodd"/><path d="M17,108.1C17,103.4,13.2,99.6,8.5,99.6C3.8,99.6,0,103.4,0,108.1L0,122C0,126.7,3.8,130.5,8.5,130.5C13.2,130.5,17,126.7,17,122L17,108.1Z" fill="#382be4" clip-rule="evenodd" fill-rule="evenodd"/><path d="M87,8.5C87,3.8,83.2,0,78.5,0C73.8,0,70,3.8,70,8.5L70,221.6C70,226.3,73.8,230.1,78.5,230.1C83.2,230.1,87,226.3,87,221.6L87,8.5Z" fill="#382be4" clip-rule="evenodd" fill-rule="evenodd"/></g><g transform="translate(424.6,36.3)"><path d="M35,69.6C35,64.9,38.9,61.1,43.5,61.1C48.2,61.1,52,64.9,52,69.6L52,160.5C52,165.2,48.2,169,43.5,169C38.9,169,35,165.2,35,160.5L35,69.6Z" fill="#382be4" clip-rule="evenodd" fill-rule="evenodd"/><path d="M70,108.1C70,103.4,73.9,99.6,78.5,99.6C83.2,99.6,87,103.4,87,108.1L87,122C87,126.7,83.2,130.5,78.5,130.5C73.9,130.5,70,126.7,70,122L70,108.1Z" fill="#382be4" clip-rule="evenodd" fill-rule="evenodd"/><path d="M0,8.5C0,3.8,3.9,0,8.5,0C13.2,0,17,3.8,17,8.5L17,221.6C17,226.3,13.2,230.1,8.5,230.1C3.9,230.1,0,226.3,0,221.6L0,8.5Z" fill="#382be4" clip-rule="evenodd" fill-rule="evenodd"/></g><g transform="translate(255.8,97.5) scale(10,10) translate(-8,-7)"><ellipse cx="1" cy="5" rx="1" ry="1" fill="#f3f2ff"/><ellipse cx="4" cy="7" rx="1" ry="1" fill="#f3f2ff"/><ellipse cx="4" cy="11" rx="1" ry="1" fill="#f3f2ff"/><ellipse cx="4" cy="3" rx="1" ry="1" fill="#f3f2ff"/><ellipse cx="8" cy="1" rx="1" ry="1" fill="#f3f2ff"/><ellipse cx="1" cy="9" rx="1" ry="1" fill="#f3f2ff"/><ellipse cx="1" cy="13" rx="1" ry="1" fill="#f3f2ff"/><ellipse cx="15" cy="5" rx="1" ry="1" fill="#f3f2ff"/><ellipse cx="12" cy="7" rx="1" ry="1" fill="#f3f2ff"/><ellipse cx="12" cy="11" rx="1" ry="1" fill="#f3f2ff"/><ellipse cx="12" cy="3" rx="1" ry="1" fill="#f3f2ff"/><ellipse cx="15" cy="9" rx="1" ry="1" fill="#f3f2ff"/><ellipse cx="15" cy="13" rx="1" ry="1" fill="#f3f2ff"/><ellipse cx="8" cy="5" rx="1" ry="1" fill="#f3f2ff"/><ellipse cx="8" cy="9" rx="1" ry="1" fill="#f3f2ff"/><ellipse cx="8" cy="13" rx="1" ry="1" fill="#f3f2ff"/></g></svg>