<svg xmlns="http://www.w3.org/2000/svg" width="100%" height="100%" viewBox="0 0 1596 461" clip-rule="evenodd" fill-rule="evenodd" stroke-linejoin="round" stroke-miterlimit="2"><path fill="#ffffff" d="M0,0L1595.6,0L1595.6,460.2L0,460.2Z"/><path d="M237.1,150.6C237.1,145.9,233.2,142.1,228.6,142.1C223.9,142.1,220.1,145.9,220.1,150.6L220.1,309.6C220.1,314.3,223.9,318.1,228.6,318.1C233.2,318.1,237.1,314.3,237.1,309.6L237.1,150.6Z" fill="rgb(0,233,255)"/><path d="M167.1,184.7C167.1,180,163.2,176.2,158.6,176.2C153.9,176.2,150.1,180,150.1,184.7L150.1,275.5C150.1,280.2,153.9,284,158.6,284C163.2,284,167.1,280.2,167.1,275.5L167.1,184.7Z" fill="rgb(0,233,255)"/><path d="M132.1,223.2C132.1,218.5,128.2,214.7,123.6,214.7C118.9,214.7,115.1,218.5,115.1,223.2L115.1,237C115.1,241.7,118.9,245.5,123.6,245.5C128.2,245.5,132.1,241.7,132.1,237L132.1,223.2Z" fill="rgb(0,233,255)"/><path d="M202.1,123.6C202.1,118.9,198.2,115.1,193.6,115.1C188.9,115.1,185.1,118.9,185.1,123.6L185.1,336.7C185.1,341.3,188.9,345.2,193.6,345.2C198.2,345.2,202.1,341.3,202.1,336.7L202.1,123.6Z" fill="rgb(0,233,255)"/><path d="M1358.7,150.6C1358.7,145.9,1362.5,142.1,1367.2,142.1C1371.9,142.1,1375.7,145.9,1375.7,150.6L1375.7,309.6C1375.7,314.3,1371.9,318.1,1367.2,318.1C1362.5,318.1,1358.7,314.3,1358.7,309.6L1358.7,150.6Z" fill="rgb(0,233,255)"/><path d="M1428.7,184.7C1428.7,180,1432.5,176.2,1437.2,176.2C1441.9,176.2,1445.7,180,1445.7,184.7L1445.7,275.5C1445.7,280.2,1441.9,284,1437.2,284C1432.5,284,1428.7,280.2,1428.7,275.5L1428.7,184.7Z" fill="rgb(0,233,255)"/><path d="M1463.7,223.2C1463.7,218.5,1467.5,214.7,1472.2,214.7C1476.9,214.7,1480.7,218.5,1480.7,223.2L1480.7,237C1480.7,241.7,1476.9,245.5,1472.2,245.5C1467.5,245.5,1463.7,241.7,1463.7,237L1463.7,223.2Z" fill="rgb(0,233,255)"/><path d="M1393.7,123.6C1393.7,118.9,1397.5,115.1,1402.2,115.1C1406.9,115.1,1410.7,118.9,1410.7,123.6L1410.7,336.7C1410.7,341.3,1406.9,345.2,1402.2,345.2C1397.5,345.2,1393.7,341.3,1393.7,336.7L1393.7,123.6Z" fill="rgb(0,233,255)"/><path d="M276.2,231C276.2,213.4,279,197.6,284.8,183.1C290.6,168.9,298.6,156.8,308.7,146.6C318.8,136.4,330.8,128.7,344.9,123.1C358.6,117.8,374,115.1,390.8,115.1C407.7,114.8,423.3,117.2,437.4,122.5C451.5,127.7,463.7,135.5,473.8,145.7C484,155.9,491.9,167.9,497.7,182.2C503.6,196.4,506.3,212.2,506.3,229.8C506.3,246.8,503.6,262.6,497.7,276.5C491.9,290.4,484,302.5,473.8,312.7C463.7,322.9,451.5,330.6,437.4,336.2C423.3,342.1,407.7,344.8,390.8,345.2C374,345.2,358.6,342.4,344.9,336.8C330.8,331.5,318.8,323.8,308.7,313.6C298.6,303.7,290.6,291.6,284.8,277.7C279,263.8,276.2,248,276.2,231ZM316.7,228.6C316.7,240.3,318.5,251.1,322.2,261C325.6,270.9,330.8,279.6,337.2,286.7C343.6,293.8,351.6,299.7,360.8,303.7C369.7,307.7,379.8,309.9,391.1,309.9C402.5,309.9,412.6,307.7,421.8,303.7C430.9,299.7,438.9,293.8,445.4,286.7C451.8,279.6,457,270.9,460.7,261C464,251.1,465.9,240.3,465.9,228.6C465.9,217.7,464,207.5,460.7,197.9C457,188.4,451.8,180,445.4,172.9C438.9,165.8,430.9,160.2,421.8,156.2C412.6,152.2,402.5,150.3,391.1,150.3C379.8,150.3,369.7,152.2,360.8,156.2C351.6,160.2,343.6,165.8,337.2,172.9C330.8,180,325.6,188.4,322.2,197.9C318.5,207.5,316.7,217.7,316.7,228.6Z" fill="#382be4" fill-rule="nonzero"/><path d="M544.5,120.6L630.8,120.6C645.4,120.6,659.3,122.8,672.6,127.1C685.9,131.8,698,138.6,708.2,147.5C718.4,156.5,726.7,167.9,732.9,181.6C739.1,195.5,742.2,211.6,742.2,230.1C742.2,249,738.8,265.1,731.7,278.7C724.6,292.6,715.3,303.7,704.1,312.7C692.7,321.6,680.3,328.4,666.7,332.8C652.8,337.4,639.5,339.6,626.2,339.6L544.5,339.6L544.5,120.6ZM612.6,304.3C624.7,304.3,636.4,302.8,647.2,300C658.1,297.2,667.3,292.9,675.4,287C683.4,281.1,689.9,273.7,694.6,264.1C699.2,254.8,701.4,243.4,701.4,230.1C701.4,216.8,699.2,205.7,695.2,196.1C691.2,186.5,685.3,178.8,678.2,172.9C670.7,167,662.1,162.7,652.2,159.9C642,157.1,631.1,155.9,619.1,155.9L583.5,155.9L583.5,304.3L612.6,304.3Z" fill="#382be4" fill-rule="nonzero"/><path d="M779.3,120.6L865.6,120.6C880.1,120.6,894.1,122.8,907.4,127.1C920.7,131.8,932.7,138.6,942.9,147.5C953.1,156.5,961.5,167.9,967.7,181.6C973.9,195.5,977,211.6,977,230.1C977,249,973.6,265.1,966.4,278.7C959.3,292.6,950.1,303.7,938.9,312.7C927.5,321.6,915.1,328.4,901.5,332.8C887.6,337.4,874.3,339.6,861,339.6L779.3,339.6L779.3,120.6ZM847.4,304.3C859.4,304.3,871.2,302.8,882,300C892.8,297.2,902.1,292.9,910.2,287C918.2,281.1,924.7,273.7,929.3,264.1C934,254.8,936.1,243.4,936.1,230.1C936.1,216.8,934,205.7,929.9,196.1C925.9,186.5,920.1,178.8,912.9,172.9C905.5,167,896.9,162.7,887,159.9C876.7,157.1,865.9,155.9,853.9,155.9L818.3,155.9L818.3,304.3L847.4,304.3Z" fill="#382be4" fill-rule="nonzero"/><path fill="#382be4" fill-rule="nonzero" d="M1013.2,120.6L1052.1,120.6L1052.1,339.6L1013.2,339.6Z"/><path d="M1089.4,231C1089.4,213.4,1092.2,197.6,1098,183.1C1103.8,168.9,1111.8,156.8,1121.9,146.6C1132,136.4,1144,128.7,1158,123.1C1171.8,117.8,1187.2,115.1,1204,115.1C1220.9,114.8,1236.5,117.2,1250.6,122.5C1264.7,127.7,1276.9,135.5,1287,145.7C1297.1,155.9,1305.1,167.9,1310.9,182.2C1316.8,196.4,1319.5,212.2,1319.5,229.8C1319.5,246.8,1316.8,262.6,1310.9,276.5C1305.1,290.4,1297.1,302.5,1287,312.7C1276.9,322.9,1264.7,330.6,1250.6,336.2C1236.5,342.1,1220.9,344.8,1204,345.2C1187.2,345.2,1171.8,342.4,1158,336.8C1144,331.5,1132,323.8,1121.9,313.6C1111.8,303.7,1103.8,291.6,1098,277.7C1092.2,263.8,1089.4,248,1089.4,231ZM1129.9,228.6C1129.9,240.3,1131.7,251.1,1135.4,261C1138.8,270.9,1144,279.6,1150.4,286.7C1156.8,293.8,1164.8,299.7,1174,303.7C1182.9,307.7,1193,309.9,1204.3,309.9C1215.6,309.9,1225.8,307.7,1235,303.7C1244.1,299.7,1252.1,293.8,1258.5,286.7C1265,279.6,1270.2,270.9,1273.9,261C1277.2,251.1,1279.1,240.3,1279.1,228.6C1279.1,217.7,1277.2,207.5,1273.9,197.9C1270.2,188.4,1265,180,1258.5,172.9C1252.1,165.8,1244.1,160.2,1235,156.2C1225.8,152.2,1215.6,150.3,1204.3,150.3C1193,150.3,1182.9,152.2,1174,156.2C1164.8,160.2,1156.8,165.8,1150.4,172.9C1144,180,1138.8,188.4,1135.4,197.9C1131.7,207.5,1129.9,217.7,1129.9,228.6Z" fill="#382be4" fill-rule="nonzero"/></svg>