<svg xmlns="http://www.w3.org/2000/svg" width="100%" height="100%" viewBox="0 0 1366 231" clip-rule="evenodd" fill-rule="evenodd" stroke-linejoin="round" stroke-miterlimit="2"><path d="M122,35.5C122,30.9,118.2,27.1,113.5,27.1C108.8,27.1,105,30.9,105,35.5L105,194.6C105,199.2,108.8,203.1,113.5,203.1C118.2,203.1,122,199.2,122,194.6L122,35.5Z" fill="rgb(0,233,255)"/><path d="M52,69.6C52,64.9,48.2,61.1,43.5,61.1C38.8,61.1,35,64.9,35,69.6L35,160.5C35,165.2,38.8,169,43.5,169C48.2,169,52,165.2,52,160.5L52,69.6Z" fill="rgb(0,233,255)"/><path d="M17,108.1C17,103.4,13.2,99.6,8.5,99.6C3.8,99.6,0,103.4,0,108.1L0,122C0,126.7,3.8,130.5,8.5,130.5C13.2,130.5,17,126.7,17,122L17,108.1Z" fill="rgb(0,233,255)"/><path d="M87,8.5C87,3.8,83.2,0,78.5,0C73.8,0,70,3.8,70,8.5L70,221.6C70,226.3,73.8,230.1,78.5,230.1C83.2,230.1,87,226.3,87,221.6L87,8.5Z" fill="rgb(0,233,255)"/><path d="M1243.6,35.5C1243.6,30.9,1247.5,27.1,1252.1,27.1C1256.8,27.1,1260.6,30.9,1260.6,35.5L1260.6,194.6C1260.6,199.2,1256.8,203.1,1252.1,203.1C1247.5,203.1,1243.6,199.2,1243.6,194.6L1243.6,35.5Z" fill="rgb(0,233,255)"/><path d="M1313.6,69.6C1313.6,64.9,1317.5,61.1,1322.1,61.1C1326.8,61.1,1330.6,64.9,1330.6,69.6L1330.6,160.5C1330.6,165.2,1326.8,169,1322.1,169C1317.5,169,1313.6,165.2,1313.6,160.5L1313.6,69.6Z" fill="rgb(0,233,255)"/><path d="M1348.6,108.1C1348.6,103.4,1352.5,99.6,1357.1,99.6C1361.8,99.6,1365.6,103.4,1365.6,108.1L1365.6,122C1365.6,126.7,1361.8,130.5,1357.1,130.5C1352.5,130.5,1348.6,126.7,1348.6,122L1348.6,108.1Z" fill="rgb(0,233,255)"/><path d="M1278.6,8.5C1278.6,3.8,1282.5,0,1287.1,0C1291.8,0,1295.6,3.8,1295.6,8.5L1295.6,221.6C1295.6,226.3,1291.8,230.1,1287.1,230.1C1282.5,230.1,1278.6,226.3,1278.6,221.6L1278.6,8.5Z" fill="rgb(0,233,255)"/><path d="M161.2,116C161.2,98.4,163.9,82.6,169.8,68C175.6,53.8,183.5,41.8,193.7,31.6C203.8,21.4,215.7,13.6,229.8,8.1C243.6,2.8,258.9,0,275.8,0C292.6,-0.3,308.2,2.2,322.3,7.4C336.4,12.7,348.7,20.4,358.8,30.6C368.9,40.8,376.9,52.9,382.7,67.1C388.5,81.3,391.3,97.1,391.3,114.7C391.3,131.8,388.5,147.5,382.7,161.4C376.9,175.4,368.9,187.4,358.8,197.6C348.7,207.8,336.4,215.6,322.3,221.1C308.2,227,292.6,229.8,275.8,230.1C258.9,230.1,243.6,227.3,229.8,221.8C215.7,216.5,203.8,208.8,193.7,198.6C183.5,188.7,175.6,176.6,169.8,162.7C163.9,148.8,161.2,133,161.2,116ZM201.6,113.5C201.6,125.3,203.5,136.1,207.1,146C210.5,155.9,215.7,164.5,222.1,171.7C228.6,178.8,236.5,184.6,245.7,188.7C254.6,192.7,264.7,194.8,276.1,194.8C287.4,194.8,297.5,192.7,306.7,188.7C315.9,184.6,323.9,178.8,330.3,171.7C336.7,164.5,341.9,155.9,345.6,146C349,136.1,350.8,125.3,350.8,113.5C350.8,102.7,349,92.5,345.6,82.9C341.9,73.3,336.7,65,330.3,57.8C323.9,50.7,315.9,45.2,306.7,41.1C297.5,37.1,287.4,35.3,276.1,35.3C264.7,35.3,254.6,37.1,245.7,41.1C236.5,45.2,228.6,50.7,222.1,57.8C215.7,65,210.5,73.3,207.1,82.9C203.5,92.5,201.6,102.7,201.6,113.5Z" fill="rgb(255,255,255)" fill-rule="nonzero"/><path d="M429.5,5.6L515.8,5.6C530.3,5.6,544.2,7.7,557.5,12.1C570.8,16.7,582.9,23.5,593.1,32.5C603.3,41.5,611.7,52.9,617.9,66.5C624.1,80.4,627.1,96.5,627.1,115.1C627.1,133.9,623.7,150,616.6,163.6C609.5,177.5,600.2,188.7,589.1,197.6C577.7,206.6,565.3,213.4,551.7,217.7C537.8,222.4,524.5,224.5,511.2,224.5L429.5,224.5L429.5,5.6ZM497.5,189.3C509.6,189.3,521.4,187.7,532.2,184.9C543,182.2,552.3,177.8,560.3,172C568.4,166.1,574.9,158.7,579.5,149.1C584.1,139.8,586.3,128.4,586.3,115.1C586.3,101.8,584.1,90.6,580.1,81C576.1,71.5,570.2,63.7,563.1,57.8C555.7,52,547,47.6,537.1,44.9C526.9,42.1,516.1,40.8,504,40.8L468.5,40.8L468.5,189.3L497.5,189.3Z" fill="rgb(255,255,255)" fill-rule="nonzero"/><path d="M664.3,5.6L750.6,5.6C765.1,5.6,779,7.7,792.3,12.1C805.6,16.7,817.7,23.5,827.9,32.5C838.1,41.5,846.5,52.9,852.6,66.5C858.8,80.4,861.9,96.5,861.9,115.1C861.9,133.9,858.5,150,851.4,163.6C844.3,177.5,835,188.7,823.9,197.6C812.4,206.6,800.1,213.4,786.4,217.7C772.5,222.4,759.2,224.5,745.9,224.5L664.3,224.5L664.3,5.6ZM732.3,189.3C744.4,189.3,756.1,187.7,767,184.9C777.8,182.2,787.1,177.8,795.1,172C803.1,166.1,809.6,158.7,814.3,149.1C818.9,139.8,821.1,128.4,821.1,115.1C821.1,101.8,818.9,90.6,814.9,81C810.9,71.5,805,63.7,797.9,57.8C790.5,52,781.8,47.6,771.9,44.9C761.7,42.1,750.9,40.8,738.8,40.8L703.2,40.8L703.2,189.3L732.3,189.3Z" fill="rgb(255,255,255)" fill-rule="nonzero"/><path fill="rgb(255,255,255)" fill-rule="nonzero" d="M898.1,5.6L937.1,5.6L937.1,224.5L898.1,224.5Z"/><path d="M974.4,116C974.4,98.4,977.1,82.6,982.9,68C988.8,53.8,996.7,41.8,1006.8,31.6C1017,21.4,1028.9,13.6,1043,8.1C1056.8,2.8,1072.1,0,1089,0C1105.8,-0.3,1121.4,2.2,1135.5,7.4C1149.6,12.7,1161.9,20.4,1172,30.6C1182.1,40.8,1190.1,52.9,1195.9,67.1C1201.7,81.3,1204.5,97.1,1204.5,114.7C1204.5,131.8,1201.7,147.5,1195.9,161.4C1190.1,175.4,1182.1,187.4,1172,197.6C1161.9,207.8,1149.6,215.6,1135.5,221.1C1121.4,227,1105.8,229.8,1089,230.1C1072.1,230.1,1056.8,227.3,1043,221.8C1028.9,216.5,1017,208.8,1006.8,198.6C996.7,188.7,988.8,176.6,982.9,162.7C977.1,148.8,974.4,133,974.4,116ZM1014.8,113.5C1014.8,125.3,1016.6,136.1,1020.3,146C1023.7,155.9,1028.9,164.5,1035.3,171.7C1041.8,178.8,1049.7,184.6,1058.9,188.7C1067.8,192.7,1077.9,194.8,1089.3,194.8C1100.6,194.8,1110.7,192.7,1119.9,188.7C1129.1,184.6,1137.1,178.8,1143.5,171.7C1149.9,164.5,1155.1,155.9,1158.8,146C1162.2,136.1,1164,125.3,1164,113.5C1164,102.7,1162.2,92.5,1158.8,82.9C1155.1,73.3,1149.9,65,1143.5,57.8C1137.1,50.7,1129.1,45.2,1119.9,41.1C1110.7,37.1,1100.6,35.3,1089.3,35.3C1077.9,35.3,1067.8,37.1,1058.9,41.1C1049.7,45.2,1041.8,50.7,1035.3,57.8C1028.9,65,1023.7,73.3,1020.3,82.9C1016.6,92.5,1014.8,102.7,1014.8,113.5Z" fill="rgb(255,255,255)" fill-rule="nonzero"/></svg>